Monda FF-Bold.ufo
<glyph name="dollar" format="1">
  <advance width="1304"/>
  <unicode hex="0024"/>
  <outline>
    <contour>
      <point x="641" y="-242" type="line"/>
      <point x="751" y="-242" type="line"/>
      <point x="751" y="-24.7729" type="line"/>
      <point x="1055.77" y="-7.79088"/>
      <point x="1186" y="183.427"/>
      <point x="1186" y="422" type="curve" smooth="yes"/>
      <point x="1186" y="654"/>
      <point x="1086" y="777"/>
      <point x="887" y="837" type="curve" smooth="yes"/>
      <point x="751" y="877.8" type="line"/>
      <point x="751" y="1265.9" type="line"/>
      <point x="872.014" y="1257.14"/>
      <point x="981.97" y="1221.92"/>
      <point x="1077" y="1177" type="curve"/>
      <point x="1161" y="1386" type="line"/>
      <point x="1045.01" y="1453.38"/>
      <point x="909.375" y="1489.48"/>
      <point x="751" y="1498.64" type="curve"/>
      <point x="751" y="1638" type="line"/>
      <point x="641" y="1638" type="line"/>
      <point x="641" y="1500.64" type="line"/>
      <point x="362.88" y="1492.95"/>
      <point x="154" y="1360.75"/>
      <point x="154" y="1094" type="curve" smooth="yes"/>
      <point x="154" y="905"/>
      <point x="219" y="752"/>
      <point x="460" y="681" type="curve" smooth="yes"/>
      <point x="641" y="627.849" type="line"/>
      <point x="641" y="208.922" type="line"/>
      <point x="481.702" y="219.431"/>
      <point x="340.913" y="271.418"/>
      <point x="240" y="325" type="curve"/>
      <point x="138" y="108" type="line"/>
      <point x="270.171" y="33.8769"/>
      <point x="458.968" y="-14.725"/>
      <point x="641" y="-24.2732" type="curve"/>
    </contour>
    <contour>
      <point x="641" y="910.8" type="line"/>
      <point x="641" y="910.8"/>
      <point x="583.425082029" y="929.291584999"/>
      <point x="562.125361188" y="938.41956131" type="curve" smooth="yes"/>
      <point x="467.184747618" y="979.10627632"/>
      <point x="441.916193202" y="1028.70596637"/>
      <point x="446" y="1121" type="curve" smooth="yes"/>
      <point x="450.4" y="1214.28"/>
      <point x="520.625" y="1257.22"/>
      <point x="641" y="1266.19" type="curve"/>
    </contour>
    <contour>
      <point x="751" y="209.689" type="curve"/>
      <point x="751" y="594.494" type="line"/>
      <point x="768.939329683" y="588.226876647"/>
      <point x="784.957762489" y="581.823449974"/>
      <point x="799.254144809" y="575.267862292" type="curve" smooth="yes"/>
      <point x="909.10823274" y="524.8944119"/>
      <point x="917.284549576" y="465.536676627"/>
      <point x="914" y="390" type="curve" smooth="yes"/>
      <point x="909.556" y="293.116"/>
      <point x="877.46" y="223.883"/>
    </contour>
  </outline>
</glyph>
<glyph name="six" format="1">
  <advance width="1448"/>
  <unicode hex="0036"/>
  <outline>
    <contour>
      <point x="739" y="-26" type="curve" smooth="yes"/>
      <point x="1099" y="-26"/>
      <point x="1280" y="91"/>
      <point x="1280" y="433" type="curve" smooth="yes"/>
      <point x="1280" y="791"/>
      <point x="1105" y="908"/>
      <point x="791" y="908" type="curve" smooth="yes"/>
      <point x="761" y="908"/>
      <point x="675" y="899"/>
      <point x="639" y="888" type="curve"/>
      <point x="961" y="1477" type="line"/>
      <point x="641" y="1477" type="line"/>
      <point x="351" y="949" type="line"/>
      <point x="273" y="800"/>
      <point x="216" y="637"/>
      <point x="216" y="446" type="curve" smooth="yes"/>
      <point x="216" y="110"/>
      <point x="373" y="-26"/>
    </contour>
    <contour>
      <point x="743" y="188" type="curve" smooth="yes"/>
      <point x="564" y="188"/>
      <point x="508" y="238"/>
      <point x="508" y="431" type="curve" smooth="yes"/>
      <point x="508" y="622"/>
      <point x="565" y="688"/>
      <point x="740" y="688" type="curve" smooth="yes"/>
      <point x="932" y="688"/>
      <point x="995" y="626"/>
      <point x="995" y="433" type="curve" smooth="yes"/>
      <point x="995" y="244"/>
      <point x="929" y="188"/>
    </contour>
  </outline>
</glyph>
<glyph name="seven" format="1">
  <advance width="1148"/>
  <unicode hex="0037"/>
  <outline>
    <contour>
      <point x="270" y="0" type="line"/>
      <point x="584" y="0" type="line"/>
      <point x="1030" y="1270" type="line"/>
      <point x="1030" y="1476" type="line"/>
      <point x="114" y="1476" type="line"/>
      <point x="114" y="1244" type="line"/>
      <point x="706" y="1244" type="line"/>
    </contour>
  </outline>
</glyph>
<glyph name="C" format="1">
  <advance width="1524"/>
  <unicode hex="0043"/>
  <outline>
    <contour>
      <point x="792" y="-26" type="curve" smooth="yes"/>
      <point x="1304" y="-26"/>
      <point x="1378" y="190"/>
      <point x="1378" y="480" type="curve"/>
      <point x="1087" y="480" type="line"/>
      <point x="1087" y="250"/>
      <point x="1018" y="207"/>
      <point x="793" y="207" type="curve" smooth="yes"/>
      <point x="571" y="207"/>
      <point x="469" y="252"/>
      <point x="469" y="454" type="curve" smooth="yes"/>
      <point x="469" y="1012" type="line" smooth="yes"/>
      <point x="469" y="1215"/>
      <point x="572" y="1268"/>
      <point x="792" y="1268" type="curve" smooth="yes"/>
      <point x="1017" y="1268"/>
      <point x="1087" y="1213"/>
      <point x="1087" y="946" type="curve"/>
      <point x="1378" y="983" type="line"/>
      <point x="1378" y="1281"/>
      <point x="1296" y="1501"/>
      <point x="792" y="1501" type="curve" smooth="yes"/>
      <point x="263" y="1501"/>
      <point x="172" y="1275"/>
      <point x="172" y="977" type="curve" smooth="yes"/>
      <point x="172" y="484" type="line" smooth="yes"/>
      <point x="172" y="193"/>
      <point x="266" y="-26"/>
    </contour>
  </outline>
</glyph>
<glyph name="G" format="1">
  <advance width="1628"/>
  <unicode hex="0047"/>
  <outline>
    <contour>
      <point x="828" y="-26" type="curve" smooth="yes"/>
      <point x="1097" y="-26"/>
      <point x="1257" y="63"/>
      <point x="1292" y="240" type="curve"/>
      <point x="1339" y="0" type="line"/>
      <point x="1436" y="0" type="line"/>
      <point x="1436" y="757" type="line"/>
      <point x="868" y="757" type="line"/>
      <point x="868" y="562" type="line"/>
      <point x="1163" y="562" type="line"/>
      <point x="1163" y="454" type="line" smooth="yes"/>
      <point x="1163" y="252"/>
      <point x="1053" y="207"/>
      <point x="828" y="207" type="curve" smooth="yes"/>
      <point x="606" y="207"/>
      <point x="470" y="252"/>
      <point x="470" y="454" type="curve" smooth="yes"/>
      <point x="470" y="1012" type="line" smooth="yes"/>
      <point x="470" y="1215"/>
      <point x="608" y="1268"/>
      <point x="828" y="1268" type="curve" smooth="yes"/>
      <point x="1050" y="1268"/>
      <point x="1150" y="1225"/>
      <point x="1150" y="972" type="curve"/>
      <point x="1435" y="1007" type="line"/>
      <point x="1435" y="1290"/>
      <point x="1340" y="1501"/>
      <point x="828" y="1501" type="curve" smooth="yes"/>
      <point x="299" y="1501"/>
      <point x="172" y="1275"/>
      <point x="172" y="977" type="curve" smooth="yes"/>
      <point x="172" y="484" type="line" smooth="yes"/>
      <point x="172" y="193"/>
      <point x="302" y="-26"/>
    </contour>
  </outline>
</glyph>
<glyph name="J" format="1">
  <advance width="1242"/>
  <unicode hex="004A"/>
  <outline>
    <contour>
      <point x="514" y="-25" type="curve" smooth="yes"/>
      <point x="845" y="-25"/>
      <point x="1046" y="138"/>
      <point x="1046" y="422" type="curve" smooth="yes"/>
      <point x="1046" y="1477" type="line"/>
      <point x="241" y="1477" type="line"/>
      <point x="241" y="1250" type="line"/>
      <point x="749" y="1250" type="line"/>
      <point x="749" y="441" type="line" smooth="yes"/>
      <point x="749" y="313"/>
      <point x="681" y="209"/>
      <point x="495" y="209" type="curve" smooth="yes"/>
      <point x="391" y="209"/>
      <point x="246" y="242"/>
      <point x="149" y="287" type="curve"/>
      <point x="80" y="67" type="line"/>
      <point x="210" y="6"/>
      <point x="370" y="-25"/>
    </contour>
  </outline>
</glyph>
<glyph name="O" format="1">
  <advance width="1630"/>
  <unicode hex="004F"/>
  <outline>
    <contour>
      <point x="826" y="207" type="curve" smooth="yes"/>
      <point x="604" y="207"/>
      <point x="470" y="265"/>
      <point x="470" y="468" type="curve" smooth="yes"/>
      <point x="470" y="1003" type="line" smooth="yes"/>
      <point x="470" y="1205"/>
      <point x="606" y="1268"/>
      <point x="826" y="1268" type="curve" smooth="yes"/>
      <point x="1048" y="1268"/>
      <point x="1160" y="1201"/>
      <point x="1160" y="1003" type="curve" smooth="yes"/>
      <point x="1160" y="468" type="line" smooth="yes"/>
      <point x="1160" y="266"/>
      <point x="1050" y="207"/>
    </contour>
    <contour>
      <point x="826" y="-26" type="curve" smooth="yes"/>
      <point x="1334" y="-26"/>
      <point x="1458" y="227"/>
      <point x="1458" y="517" type="curve" smooth="yes"/>
      <point x="1458" y="948" type="line" smooth="yes"/>
      <point x="1458" y="1247"/>
      <point x="1336" y="1501"/>
      <point x="826" y="1501" type="curve" smooth="yes"/>
      <point x="293" y="1501"/>
      <point x="172" y="1262"/>
      <point x="172" y="963" type="curve" smooth="yes"/>
      <point x="172" y="501" type="line" smooth="yes"/>
      <point x="172" y="209"/>
      <point x="295" y="-26"/>
    </contour>
  </outline>
</glyph>
<glyph name="R" format="1">
  <advance width="1513"/>
  <unicode hex="0052"/>
  <outline>
    <contour>
      <point x="212" y="0" type="line"/>
      <point x="509" y="0" type="line"/>
      <point x="509" y="583" type="line"/>
      <point x="855" y="583" type="line"/>
      <point x="1107" y="0" type="line"/>
      <point x="1415" y="0" type="line"/>
      <point x="1137" y="626" type="line"/>
      <point x="1317" y="699"/>
      <point x="1354" y="853"/>
      <point x="1354" y="1035" type="curve" smooth="yes"/>
      <point x="1354" y="1301"/>
      <point x="1253" y="1477"/>
      <point x="861" y="1477" type="curve" smooth="yes"/>
      <point x="212" y="1477" type="line"/>
    </contour>
    <contour>
      <point x="509" y="795" type="line"/>
      <point x="509" y="1265" type="line"/>
      <point x="898" y="1265" type="line" smooth="yes"/>
      <point x="1045" y="1265"/>
      <point x="1070" y="1142"/>
      <point x="1070" y="1022" type="curve" smooth="yes"/>
      <point x="1070" y="896"/>
      <point x="1038" y="795"/>
      <point x="886" y="795" type="curve" smooth="yes"/>
    </contour>
  </outline>
</glyph>
<glyph name="S" format="1">
  <advance width="1314"/>
  <unicode hex="0053"/>
  <outline>
    <contour>
      <point x="706.0" y="-26.0" type="curve" smooth="yes"/>
      <point x="1043.0" y="-26.0"/>
      <point x="1186.0" y="172.0"/>
      <point x="1186.0" y="422.0" type="curve" smooth="yes"/>
      <point x="1186.0" y="654.0"/>
      <point x="1086.0" y="777.0"/>
      <point x="887.0" y="837.0" type="curve" smooth="yes"/>
      <point x="637.0" y="912.0" type="line" smooth="yes"/>
      <point x="480.0" y="959.0"/>
      <point x="441.0" y="1008.0"/>
      <point x="446.0" y="1121.0" type="curve" smooth="yes"/>
      <point x="451.0" y="1227.0"/>
      <point x="541.0" y="1268.0"/>
      <point x="693.0" y="1268.0" type="curve" smooth="yes"/>
      <point x="837.0" y="1268.0"/>
      <point x="980" y="1237"/>
      <point x="1096" y="1201" type="curve"/>
      <point x="1151" y="1420" type="line"/>
      <point x="1006" y="1479"/>
      <point x="862.0" y="1501.0"/>
      <point x="667.0" y="1501.0" type="curve" smooth="yes"/>
      <point x="376.0" y="1501.0"/>
      <point x="154.0" y="1369.0"/>
      <point x="154.0" y="1094.0" type="curve" smooth="yes"/>
      <point x="154.0" y="905.0"/>
      <point x="219.0" y="752.0"/>
      <point x="460.0" y="681.0" type="curve" smooth="yes"/>
      <point x="712.0" y="607.0" type="line" smooth="yes"/>
      <point x="905.0" y="550.0"/>
      <point x="918.0" y="482.0"/>
      <point x="914.0" y="390.0" type="curve" smooth="yes"/>
      <point x="909.0" y="281.0"/>
      <point x="869.0" y="207.0"/>
      <point x="699.0" y="207.0" type="curve" smooth="yes"/>
      <point x="516.0" y="207.0"/>
      <point x="332" y="258"/>
      <point x="209" y="293" type="curve"/>
      <point x="154" y="59" type="line"/>
      <point x="316" y="9"/>
      <point x="505.0" y="-26.0"/>
    </contour>
  </outline>
</glyph>
<glyph name="Y" format="1">
  <advance width="1328"/>
  <unicode hex="0059"/>
  <outline>
    <contour>
      <point x="519" y="0" type="line"/>
      <point x="815" y="0" type="line"/>
      <point x="815" y="567" type="line"/>
      <point x="1312" y="1476" type="line"/>
      <point x="1012" y="1476" type="line"/>
      <point x="669" y="859" type="line"/>
      <point x="329" y="1476" type="line"/>
      <point x="16" y="1476" type="line"/>
      <point x="519" y="567" type="line"/>
    </contour>
  </outline>
</glyph>
<glyph name="a" format="1">
  <advance width="1214"/>
  <unicode hex="0061"/>
  <outline>
    <contour>
      <point x="447" y="-23" type="curve" smooth="yes"/>
      <point x="604" y="-23"/>
      <point x="719" y="63"/>
      <point x="777" y="139" type="curve"/>
      <point x="816" y="52"/>
      <point x="857" y="-8"/>
      <point x="1006" y="-8" type="curve" smooth="yes"/>
      <point x="1112" y="-8" type="line"/>
      <point x="1134" y="190" type="line"/>
      <point x="1047" y="190"/>
      <point x="1027" y="221"/>
      <point x="1027" y="319" type="curve" smooth="yes"/>
      <point x="1027" y="733" type="line" smooth="yes"/>
      <point x="1027" y="955"/>
      <point x="917" y="1097"/>
      <point x="596" y="1097" type="curve" smooth="yes"/>
      <point x="302" y="1097"/>
      <point x="168" y="963"/>
      <point x="168" y="755" type="curve" smooth="yes"/>
      <point x="168" y="723" type="line"/>
      <point x="423" y="723" type="line"/>
      <point x="423" y="765" type="line" smooth="yes"/>
      <point x="423" y="848"/>
      <point x="454" y="907"/>
      <point x="590" y="907" type="curve" smooth="yes"/>
      <point x="712" y="907"/>
      <point x="755" y="863"/>
      <point x="755" y="777" type="curve" smooth="yes"/>
      <point x="754" y="642"/>
      <point x="670" y="641"/>
      <point x="477" y="583" type="curve" smooth="yes"/>
      <point x="173" y="492"/>
      <point x="131" y="420"/>
      <point x="136" y="268" type="curve" smooth="yes"/>
      <point x="141" y="90"/>
      <point x="263" y="-23"/>
    </contour>
    <contour>
      <point x="539" y="171" type="curve" smooth="yes"/>
      <point x="448" y="171"/>
      <point x="399" y="218"/>
      <point x="397" y="302" type="curve" smooth="yes"/>
      <point x="395" y="363"/>
      <point x="430" y="419"/>
      <point x="545" y="452" type="curve" smooth="yes"/>
      <point x="635" y="478"/>
      <point x="722" y="513"/>
      <point x="755" y="543" type="curve"/>
      <point x="755" y="272" type="line"/>
      <point x="705" y="197"/>
      <point x="605" y="171"/>
    </contour>
  </outline>
</glyph>
<glyph name="c" format="1">
  <advance width="1160"/>
  <unicode hex="0063"/>
  <outline>
    <contour>
      <point x="598" y="-23" type="curve" smooth="yes"/>
      <point x="940" y="-23"/>
      <point x="1027" y="77"/>
      <point x="1033" y="380" type="curve"/>
      <point x="779" y="380" type="line"/>
      <point x="779" y="197"/>
      <point x="746" y="168"/>
      <point x="604" y="168" type="curve" smooth="yes"/>
      <point x="480" y="168"/>
      <point x="421" y="207"/>
      <point x="421" y="322" type="curve" smooth="yes"/>
      <point x="421" y="756" type="line" smooth="yes"/>
      <point x="421" y="867"/>
      <point x="488" y="907"/>
      <point x="604" y="907" type="curve" smooth="yes"/>
      <point x="744" y="907"/>
      <point x="777" y="874"/>
      <point x="778" y="679" type="curve"/>
      <point x="1034" y="699" type="line"/>
      <point x="1034" y="1007"/>
      <point x="883" y="1097"/>
      <point x="594" y="1097" type="curve" smooth="yes"/>
      <point x="313" y="1097"/>
      <point x="148" y="972"/>
      <point x="148" y="757" type="curve" smooth="yes"/>
      <point x="148" y="327" type="line" smooth="yes"/>
      <point x="148" y="140"/>
      <point x="231" y="-23"/>
    </contour>
  </outline>
</glyph>
<glyph name="g" format="1">
  <advance width="1250"/>
  <unicode hex="0067"/>
  <outline>
    <contour>
      <point x="605" y="-424" type="curve" smooth="yes"/>
      <point x="950" y="-424"/>
      <point x="1082" y="-229"/>
      <point x="1082" y="35" type="curve" smooth="yes"/>
      <point x="1082" y="1075" type="line"/>
      <point x="878" y="1075" type="line"/>
      <point x="855" y="997" type="line"/>
      <point x="788" y="1052"/>
      <point x="674" y="1097"/>
      <point x="556" y="1097" type="curve" smooth="yes"/>
      <point x="253" y="1097"/>
      <point x="148" y="935"/>
      <point x="148" y="751" type="curve" smooth="yes"/>
      <point x="148" y="366" type="line" smooth="yes"/>
      <point x="148" y="155"/>
      <point x="307" y="32"/>
      <point x="566" y="32" type="curve" smooth="yes"/>
      <point x="648" y="32"/>
      <point x="744" y="50"/>
      <point x="808" y="88" type="curve"/>
      <point x="808" y="-33" type="line" smooth="yes"/>
      <point x="808" y="-151"/>
      <point x="745" y="-223"/>
      <point x="585" y="-225" type="curve" smooth="yes"/>
      <point x="502" y="-227"/>
      <point x="397" y="-211"/>
      <point x="296" y="-183" type="curve"/>
      <point x="240" y="-368" type="line"/>
      <point x="315" y="-404"/>
      <point x="472" y="-424"/>
    </contour>
    <contour>
      <point x="611" y="215" type="curve" smooth="yes"/>
      <point x="498" y="215"/>
      <point x="421" y="250"/>
      <point x="421" y="358" type="curve" smooth="yes"/>
      <point x="421" y="757" type="line" smooth="yes"/>
      <point x="421" y="865"/>
      <point x="487" y="907"/>
      <point x="611" y="907" type="curve" smooth="yes"/>
      <point x="734" y="907"/>
      <point x="808" y="860"/>
      <point x="808" y="832" type="curve" smooth="yes"/>
      <point x="808" y="263" type="line"/>
      <point x="771" y="236"/>
      <point x="703" y="215"/>
    </contour>
  </outline>
</glyph>
<glyph name="k" format="1">
  <advance width="1230"/>
  <unicode hex="006B"/>
  <outline>
    <contour>
      <point x="178" y="0" type="line"/>
      <point x="451" y="0" type="line"/>
      <point x="451" y="378" type="line"/>
      <point x="551" y="481" type="line"/>
      <point x="881" y="0" type="line"/>
      <point x="1208" y="0" type="line"/>
      <point x="781" y="608" type="line"/>
      <point x="1186" y="1074" type="line"/>
      <point x="863" y="1074" type="line"/>
      <point x="451" y="606" type="line"/>
      <point x="451" y="1516" type="line"/>
      <point x="178" y="1516" type="line"/>
    </contour>
  </outline>
</glyph>
<glyph name="n" format="1">
  <advance width="1198"/>
  <unicode hex="006E"/>
  <outline>
    <contour>
      <point x="128" y="0" type="line"/>
      <point x="401" y="0" type="line"/>
      <point x="401" y="758" type="line" smooth="yes"/>
      <point x="401" y="863"/>
      <point x="511" y="907"/>
      <point x="609" y="907" type="curve" smooth="yes"/>
      <point x="694" y="907"/>
      <point x="797" y="881"/>
      <point x="797" y="768" type="curve" smooth="yes"/>
      <point x="797" y="0" type="line"/>
      <point x="1070" y="0" type="line"/>
      <point x="1070" y="794" type="line" smooth="yes"/>
      <point x="1070" y="975"/>
      <point x="930" y="1097"/>
      <point x="724" y="1097" type="curve" smooth="yes"/>
      <point x="575" y="1097"/>
      <point x="446" y="1030"/>
      <point x="401" y="948" type="curve"/>
      <point x="401" y="1074" type="line"/>
      <point x="128" y="1074" type="line"/>
    </contour>
  </outline>
</glyph>
<glyph name="q" format="1">
  <advance width="1248"/>
  <unicode hex="0071"/>
  <outline>
    <contour>
      <point x="795" y="-410" type="line"/>
      <point x="1068" y="-410" type="line"/>
      <point x="1068" y="1074" type="line"/>
      <point x="864" y="1074" type="line"/>
      <point x="845" y="1005" type="line"/>
      <point x="784" y="1056"/>
      <point x="680" y="1097"/>
      <point x="568" y="1097" type="curve" smooth="yes"/>
      <point x="307" y="1097"/>
      <point x="148" y="960"/>
      <point x="148" y="750" type="curve" smooth="yes"/>
      <point x="148" y="317" type="line" smooth="yes"/>
      <point x="148" y="136"/>
      <point x="260" y="-23"/>
      <point x="562" y="-23" type="curve" smooth="yes"/>
      <point x="644" y="-23"/>
      <point x="730" y="-4"/>
      <point x="795" y="33" type="curve"/>
    </contour>
    <contour>
      <point x="613" y="166" type="curve" smooth="yes"/>
      <point x="492" y="166"/>
      <point x="421" y="200"/>
      <point x="421" y="308" type="curve" smooth="yes"/>
      <point x="421" y="756" type="line" smooth="yes"/>
      <point x="421" y="865"/>
      <point x="497" y="907"/>
      <point x="613" y="907" type="curve" smooth="yes"/>
      <point x="710" y="907"/>
      <point x="770" y="878"/>
      <point x="795" y="839" type="curve"/>
      <point x="795" y="220" type="line"/>
      <point x="792" y="213"/>
      <point x="727" y="166"/>
    </contour>
  </outline>
</glyph>
<glyph name="s" format="1">
  <advance width="1030"/>
  <unicode hex="0073"/>
  <outline>
    <contour>
      <point x="551.0" y="-23.0" type="curve" smooth="yes"/>
      <point x="808.0" y="-23.0"/>
      <point x="936.0" y="122.0"/>
      <point x="936.0" y="303.0" type="curve" smooth="yes"/>
      <point x="936.0" y="471.0"/>
      <point x="875.0" y="569.0"/>
      <point x="694.0" y="626.0" type="curve" smooth="yes"/>
      <point x="467.0" y="698.0" type="line" smooth="yes"/>
      <point x="412.0" y="716.0"/>
      <point x="398.0" y="751.0"/>
      <point x="399.0" y="806.0" type="curve" smooth="yes"/>
      <point x="400.0" y="873.0"/>
      <point x="434.0" y="907.0"/>
      <point x="549.0" y="907.0" type="curve" smooth="yes"/>
      <point x="651.0" y="907.0"/>
      <point x="787" y="880"/>
      <point x="851" y="849" type="curve"/>
      <point x="910" y="1019" type="line"/>
      <point x="833" y="1062"/>
      <point x="708.0" y="1097.0"/>
      <point x="524.0" y="1097.0" type="curve" smooth="yes"/>
      <point x="298.0" y="1097.0"/>
      <point x="140.0" y="1001.0"/>
      <point x="138.0" y="796.0" type="curve"/>
      <point x="135.0" y="652.0"/>
      <point x="191.0" y="542.0"/>
      <point x="360.0" y="489.0" type="curve" smooth="yes"/>
      <point x="596.0" y="415.0" type="line" smooth="yes"/>
      <point x="678.0" y="389.0"/>
      <point x="684.0" y="338.0"/>
      <point x="684.0" y="285.0" type="curve" smooth="yes"/>
      <point x="684.0" y="225.0"/>
      <point x="643.0" y="166.0"/>
      <point x="541.0" y="166.0" type="curve" smooth="yes"/>
      <point x="435.0" y="166.0"/>
      <point x="301" y="200"/>
      <point x="186" y="249" type="curve"/>
      <point x="132" y="64" type="line"/>
      <point x="245" y="7"/>
      <point x="369.0" y="-23.0"/>
    </contour>
  </outline>
</glyph>
<glyph name="y" format="1">
  <advance width="1140"/>
  <unicode hex="0079"/>
  <outline>
    <contour>
      <point x="208" y="-487" type="line"/>
      <point x="595" y="-475"/>
      <point x="623" y="-349"/>
      <point x="769" y="87" type="curve" smooth="yes"/>
      <point x="1100" y="1074" type="line"/>
      <point x="836" y="1074" type="line"/>
      <point x="606" y="300" type="line"/>
      <point x="331" y="1074" type="line"/>
      <point x="64" y="1074" type="line"/>
      <point x="485" y="-2" type="line"/>
      <point x="439" y="-174"/>
      <point x="425" y="-288"/>
      <point x="196" y="-298" type="curve"/>
    </contour>
  </outline>
</glyph>
<glyph name="yen" format="1">
  <advance width="1317"/>
  <unicode hex="00A5"/>
  <outline>
    <contour>
      <point x="519" y="0" type="line"/>
      <point x="815" y="0" type="line"/>
      <point x="815" y="208" type="line"/>
      <point x="1058" y="208" type="line"/>
      <point x="1058" y="368" type="line"/>
      <point x="815" y="368" type="line"/>
      <point x="815" y="496" type="line"/>
      <point x="1058" y="496" type="line"/>
      <point x="1058" y="656" type="line"/>
      <point x="863.661" y="656" type="line"/>
      <point x="1312" y="1476" type="line"/>
      <point x="1012" y="1476" type="line"/>
      <point x="669" y="859" type="line"/>
      <point x="329" y="1476" type="line"/>
      <point x="16" y="1476" type="line"/>
      <point x="469.751" y="656" type="line"/>
      <point x="258" y="656" type="line"/>
      <point x="258" y="496" type="line"/>
      <point x="519" y="496" type="line"/>
      <point x="519" y="368" type="line"/>
      <point x="258" y="368" type="line"/>
      <point x="258" y="208" type="line"/>
      <point x="519" y="208" type="line"/>
    </contour>
  </outline>
</glyph>
<glyph name="logicalnot" format="1">
  <advance width="740"/>
  <unicode hex="00AC"/>
  <outline>
    <contour>
      <point x="481" y="250" type="line"/>
      <point x="613" y="250" type="line"/>
      <point x="613" y="600" type="line"/>
      <point x="108" y="600" type="line"/>
      <point x="108" y="430" type="line"/>
      <point x="481" y="430" type="line"/>
    </contour>
  </outline>
</glyph>
<glyph name="paragraph" format="1">
  <advance width="1222"/>
  <unicode hex="00B6"/>
  <outline>
    <contour>
      <point x="427" y="0" type="line"/>
      <point x="599" y="0" type="line"/>
      <point x="599" y="1334" type="line"/>
      <point x="830" y="1334" type="line"/>
      <point x="830" y="0" type="line"/>
      <point x="1002" y="0" type="line"/>
      <point x="1002" y="1476" type="line"/>
      <point x="442" y="1476" type="line" smooth="yes"/>
      <point x="248" y="1476"/>
      <point x="75" y="1389"/>
      <point x="75" y="1173" type="curve" smooth="yes"/>
      <point x="75" y="963"/>
      <point x="233" y="859"/>
      <point x="427" y="858" type="curve"/>
    </contour>
  </outline>
</glyph>
<glyph name="Thorn" format="1">
  <advance width="1346"/>
  <unicode hex="00DE"/>
  <outline>
    <contour>
      <point x="200" y="0" type="line"/>
      <point x="497" y="0" type="line"/>
      <point x="497" y="349" type="line"/>
      <point x="747" y="349" type="line" smooth="yes"/>
      <point x="1133" y="349"/>
      <point x="1256" y="469"/>
      <point x="1256" y="811" type="curve" smooth="yes"/>
      <point x="1256" y="1143"/>
      <point x="1102" y="1249"/>
      <point x="775" y="1249" type="curve" smooth="yes"/>
      <point x="497" y="1249" type="line"/>
      <point x="497" y="1476" type="line"/>
      <point x="200" y="1476" type="line"/>
    </contour>
    <contour>
      <point x="497" y="567" type="line"/>
      <point x="497" y="1037" type="line"/>
      <point x="803" y="1037" type="line" smooth="yes"/>
      <point x="943" y="1037"/>
      <point x="977" y="951"/>
      <point x="977" y="797" type="curve" smooth="yes"/>
      <point x="977" y="619"/>
      <point x="944" y="567"/>
      <point x="794" y="567" type="curve" smooth="yes"/>
    </contour>
  </outline>
</glyph>
<glyph name="germandbls" format="1">
  <advance width="1306"/>
  <unicode hex="00DF"/>
  <outline>
    <contour>
      <point x="559" y="-20" type="line"/>
      <point x="1024" y="-20"/>
      <point x="1202" y="116"/>
      <point x="1202" y="434" type="curve" smooth="yes"/>
      <point x="1202" y="641"/>
      <point x="1098" y="776"/>
      <point x="917" y="829" type="curve"/>
      <point x="1059" y="880"/>
      <point x="1111" y="985"/>
      <point x="1111" y="1122" type="curve" smooth="yes"/>
      <point x="1111" y="1361"/>
      <point x="986" y="1507"/>
      <point x="627" y="1507" type="curve" smooth="yes"/>
      <point x="321" y="1507"/>
      <point x="178" y="1355"/>
      <point x="178" y="1118" type="curve" smooth="yes"/>
      <point x="178" y="0" type="line"/>
      <point x="446" y="0" type="line"/>
      <point x="446" y="1129" type="line" smooth="yes"/>
      <point x="446" y="1240"/>
      <point x="486" y="1318"/>
      <point x="647" y="1318" type="curve" smooth="yes"/>
      <point x="795" y="1318"/>
      <point x="827" y="1233"/>
      <point x="827" y="1117" type="curve" smooth="yes"/>
      <point x="827" y="1009"/>
      <point x="775" y="893"/>
      <point x="580" y="893" type="curve"/>
      <point x="580" y="703" type="line"/>
      <point x="817" y="703"/>
      <point x="943" y="630"/>
      <point x="943" y="456" type="curve" smooth="yes"/>
      <point x="943" y="238"/>
      <point x="845" y="175"/>
      <point x="554" y="169" type="curve"/>
    </contour>
  </outline>
</glyph>
<glyph name="oslash" format="1">
  <advance width="1228"/>
  <unicode hex="00F8"/>
  <outline>
    <contour>
      <point x="387" y="-214" type="line"/>
      <point x="916" y="1260" type="line"/>
      <point x="844" y="1281" type="line"/>
      <point x="315" y="-194" type="line"/>
    </contour>
    <component base="o"/>
  </outline>
</glyph>
<glyph name="thorn" format="1">
  <advance width="1251"/>
  <unicode hex="00FE"/>
  <outline>
    <contour>
      <point x="178" y="-410" type="line"/>
      <point x="451" y="-410" type="line"/>
      <point x="451" y="17" type="line"/>
      <point x="504" y="-6"/>
      <point x="571" y="-24"/>
      <point x="656" y="-24" type="curve" smooth="yes"/>
      <point x="959" y="-24"/>
      <point x="1100" y="142"/>
      <point x="1100" y="326" type="curve" smooth="yes"/>
      <point x="1100" y="751" type="line" smooth="yes"/>
      <point x="1100" y="957"/>
      <point x="948" y="1095"/>
      <point x="688" y="1095" type="curve" smooth="yes"/>
      <point x="597" y="1095"/>
      <point x="514" y="1071"/>
      <point x="451" y="1036" type="curve"/>
      <point x="451" y="1516" type="line"/>
      <point x="178" y="1516" type="line"/>
    </contour>
    <contour>
      <point x="634" y="165" type="curve" smooth="yes"/>
      <point x="529" y="165"/>
      <point x="466" y="205"/>
      <point x="451" y="213" type="curve"/>
      <point x="451" y="841" type="line"/>
      <point x="483" y="872"/>
      <point x="555" y="906"/>
      <point x="643" y="906" type="curve" smooth="yes"/>
      <point x="756" y="906"/>
      <point x="827" y="862"/>
      <point x="827" y="755" type="curve" smooth="yes"/>
      <point x="827" y="320" type="line" smooth="yes"/>
      <point x="827" y="211"/>
      <point x="757" y="165"/>
    </contour>
  </outline>
</glyph>
<glyph name="hbar" format="1">
  <advance width="1289"/>
  <unicode hex="0127"/>
  <outline>
    <contour>
      <point x="178" y="0" type="line"/>
      <point x="451" y="0" type="line"/>
      <point x="451" y="759" type="line" smooth="yes"/>
      <point x="451" y="863"/>
      <point x="566" y="907"/>
      <point x="664" y="907" type="curve" smooth="yes"/>
      <point x="749" y="907"/>
      <point x="847" y="882"/>
      <point x="847" y="769" type="curve" smooth="yes"/>
      <point x="847" y="0" type="line"/>
      <point x="1120" y="0" type="line"/>
      <point x="1120" y="795" type="line" smooth="yes"/>
      <point x="1120" y="976"/>
      <point x="987" y="1097"/>
      <point x="781" y="1097" type="curve" smooth="yes"/>
      <point x="632" y="1097"/>
      <point x="497" y="1035"/>
      <point x="451" y="960" type="curve"/>
      <point x="451" y="1221" type="line"/>
      <point x="775" y="1221" type="line"/>
      <point x="775" y="1364" type="line"/>
      <point x="451" y="1364" type="line"/>
      <point x="451" y="1515" type="line"/>
      <point x="178" y="1515" type="line"/>
      <point x="178" y="1364" type="line"/>
      <point x="45" y="1364" type="line"/>
      <point x="45" y="1221" type="line"/>
      <point x="178" y="1221" type="line"/>
    </contour>
  </outline>
</glyph>
<glyph name="Lslash" format="1">
  <advance width="1210"/>
  <unicode hex="0141"/>
  <outline>
    <contour>
      <point x="24" y="680" type="line"/>
      <point x="793" y="951" type="line"/>
      <point x="793" y="1094" type="line"/>
      <point x="24" y="823" type="line"/>
    </contour>
    <component base="L"/>
  </outline>
</glyph>
<glyph name="lslash" format="1">
  <advance width="577"/>
  <unicode hex="0142"/>
  <outline>
    <contour>
      <point x="493" y="-12" type="curve" smooth="yes"/>
      <point x="607" y="-12" type="line"/>
      <point x="628" y="190" type="line"/>
      <point x="594" y="190" type="line" smooth="yes"/>
      <point x="448" y="190"/>
      <point x="414" y="239"/>
      <point x="414" y="357" type="curve" smooth="yes"/>
      <point x="414" y="847.448" type="line"/>
      <point x="579" y="915" type="line"/>
      <point x="579" y="1059" type="line"/>
      <point x="414" y="991.16" type="line"/>
      <point x="414" y="1515" type="line"/>
      <point x="142" y="1515" type="line"/>
      <point x="142" y="879.328" type="line"/>
      <point x="5" y="823" type="line"/>
      <point x="5" y="680" type="line"/>
      <point x="142" y="736.089" type="line"/>
      <point x="142" y="353" type="line" smooth="yes"/>
      <point x="142" y="83"/>
      <point x="254" y="-12"/>
    </contour>
  </outline>
</glyph>
<glyph name="eng" format="1">
  <advance width="1288"/>
  <unicode hex="014B"/>
  <outline>
    <contour>
      <point x="571" y="-365" type="line"/>
      <point x="1013" y="-365"/>
      <point x="1120" y="-202"/>
      <point x="1120" y="179" type="curve" smooth="yes"/>
      <point x="1120" y="794" type="line" smooth="yes"/>
      <point x="1120" y="975"/>
      <point x="980" y="1097"/>
      <point x="774" y="1097" type="curve" smooth="yes"/>
      <point x="625" y="1097"/>
      <point x="497" y="1030"/>
      <point x="451" y="948" type="curve"/>
      <point x="451" y="1074" type="line"/>
      <point x="178" y="1074" type="line"/>
      <point x="178" y="0" type="line"/>
      <point x="451" y="0" type="line"/>
      <point x="451" y="758" type="line" smooth="yes"/>
      <point x="451" y="863"/>
      <point x="561" y="907"/>
      <point x="660" y="907" type="curve" smooth="yes"/>
      <point x="744" y="907"/>
      <point x="847" y="881"/>
      <point x="847" y="768" type="curve" smooth="yes"/>
      <point x="847" y="172" type="line" smooth="yes"/>
      <point x="847" y="-140"/>
      <point x="787" y="-153"/>
      <point x="543" y="-175" type="curve"/>
    </contour>
  </outline>
</glyph>
<glyph name="tbar" format="1">
  <advance width="870"/>
  <unicode hex="0167"/>
  <outline>
    <contour>
      <point x="58" y="560" type="line"/>
      <point x="774" y="560" type="line"/>
      <point x="774" y="689" type="line"/>
      <point x="58" y="689" type="line"/>
    </contour>
    <component base="t"/>
  </outline>
</glyph>
<glyph name="florin" format="1">
  <advance width="693"/>
  <unicode hex="0192"/>
  <outline>
    <contour>
      <point x="176" y="-205" type="curve" smooth="yes"/>
      <point x="404" y="-205"/>
      <point x="425" y="-67"/>
      <point x="425" y="101" type="curve" smooth="yes"/>
      <point x="425" y="843" type="line"/>
      <point x="567" y="843" type="line"/>
      <point x="567" y="1012" type="line"/>
      <point x="425" y="1012" type="line"/>
      <point x="425" y="1151" type="line" smooth="yes"/>
      <point x="425" y="1225"/>
      <point x="437" y="1291"/>
      <point x="535" y="1291" type="curve" smooth="yes"/>
      <point x="549" y="1291"/>
      <point x="572" y="1286"/>
      <point x="593" y="1285" type="curve"/>
      <point x="593" y="1432" type="line"/>
      <point x="540" y="1438"/>
      <point x="508" y="1440"/>
      <point x="471" y="1440" type="curve" smooth="yes"/>
      <point x="240" y="1440"/>
      <point x="220" y="1302"/>
      <point x="220" y="1125" type="curve" smooth="yes"/>
      <point x="220" y="1012" type="line"/>
      <point x="103" y="1012" type="line"/>
      <point x="103" y="843" type="line"/>
      <point x="220" y="843" type="line"/>
      <point x="220" y="74" type="line" smooth="yes"/>
      <point x="220" y="1"/>
      <point x="206" y="-56"/>
      <point x="116" y="-56" type="curve" smooth="yes"/>
      <point x="101" y="-56"/>
      <point x="75" y="-53"/>
      <point x="51" y="-49" type="curve"/>
      <point x="51" y="-196" type="line"/>
      <point x="105" y="-203"/>
      <point x="138" y="-205"/>
    </contour>
  </outline>
</glyph>
<glyph name="uni0237" format="1">
  <advance width="650"/>
  <unicode hex="0237"/>
  <outline>
    <contour>
      <point x="-12" y="-329" type="line"/>
      <point x="97" y="-329" type="line" smooth="yes"/>
      <point x="364" y="-329"/>
      <point x="471" y="-183"/>
      <point x="471" y="30" type="curve" smooth="yes"/>
      <point x="471" y="1074" type="line"/>
      <point x="198" y="1074" type="line"/>
      <point x="198" y="43" type="line" smooth="yes"/>
      <point x="198" y="-39"/>
      <point x="167" y="-135"/>
      <point x="27" y="-135" type="curve" smooth="yes"/>
      <point x="-18" y="-135" type="line"/>
    </contour>
  </outline>
</glyph>
<glyph name="ring" format="1">
  <advance width="591"/>
  <unicode hex="02DA"/>
  <outline>
    <contour>
      <point x="296" y="1159" type="curve" smooth="yes"/>
      <point x="228" y="1159"/>
      <point x="178" y="1186"/>
      <point x="178" y="1283" type="curve" smooth="yes"/>
      <point x="178" y="1379"/>
      <point x="228" y="1406"/>
      <point x="295" y="1406" type="curve" smooth="yes"/>
      <point x="363" y="1406"/>
      <point x="413" y="1378"/>
      <point x="413" y="1281" type="curve" smooth="yes"/>
      <point x="413" y="1185"/>
      <point x="363" y="1159"/>
    </contour>
    <contour>
      <point x="296" y="1069" type="curve" smooth="yes"/>
      <point x="439" y="1069"/>
      <point x="525" y="1146"/>
      <point x="525" y="1282" type="curve" smooth="yes"/>
      <point x="525" y="1418"/>
      <point x="438" y="1494"/>
      <point x="296" y="1494" type="curve" smooth="yes"/>
      <point x="153" y="1494"/>
      <point x="66" y="1418"/>
      <point x="66" y="1282" type="curve" smooth="yes"/>
      <point x="66" y="1146"/>
      <point x="153" y="1069"/>
    </contour>
  </outline>
</glyph>
<glyph name="uni0307" format="1">
  <advance width="459"/>
  <unicode hex="0307"/>
  <outline>
    <contour>
      <point x="117" y="1251" type="line"/>
      <point x="365" y="1251" type="line"/>
      <point x="365" y="1498" type="line"/>
      <point x="117" y="1498" type="line"/>
    </contour>
  </outline>
</glyph>
<glyph name="uni1E40" format="1">
  <advance width="1895"/>
  <unicode hex="1E40"/>
  <outline>
    <contour>
      <point x="212" y="0" type="line"/>
      <point x="496" y="0" type="line"/>
      <point x="496" y="1087" type="line"/>
      <point x="864" y="429" type="line"/>
      <point x="1063" y="429" type="line"/>
      <point x="1430" y="1091" type="line"/>
      <point x="1430" y="0" type="line"/>
      <point x="1714" y="0" type="line"/>
      <point x="1714" y="1477" type="line"/>
      <point x="1357" y="1477" type="line"/>
      <point x="963" y="761" type="line"/>
      <point x="563" y="1477" type="line"/>
      <point x="212" y="1477" type="line"/>
    </contour>
    <contour>
      <point x="824" y="1664" type="line"/>
      <point x="1072" y="1664" type="line"/>
      <point x="1072" y="1911" type="line"/>
      <point x="824" y="1911" type="line"/>
    </contour>
  </outline>
</glyph>
<glyph name="uni1E56" format="1">
  <advance width="1339"/>
  <unicode hex="1E56"/>
  <outline>
    <contour>
      <point x="212" y="0" type="line"/>
      <point x="509" y="0" type="line"/>
      <point x="509" y="509" type="line"/>
      <point x="758" y="509" type="line" smooth="yes"/>
      <point x="1144" y="509"/>
      <point x="1268" y="663"/>
      <point x="1268" y="1005" type="curve" smooth="yes"/>
      <point x="1268" y="1337"/>
      <point x="1113" y="1477"/>
      <point x="787" y="1477" type="curve" smooth="yes"/>
      <point x="212" y="1477" type="line"/>
    </contour>
    <contour>
      <point x="509" y="726" type="line"/>
      <point x="509" y="1265" type="line"/>
      <point x="815" y="1265" type="line" smooth="yes"/>
      <point x="955" y="1265"/>
      <point x="990" y="1145"/>
      <point x="990" y="990" type="curve" smooth="yes"/>
      <point x="990" y="813"/>
      <point x="955" y="726"/>
      <point x="805" y="726" type="curve" smooth="yes"/>
    </contour>
    <contour>
      <point x="600" y="1664" type="line"/>
      <point x="848" y="1664" type="line"/>
      <point x="848" y="1911" type="line"/>
      <point x="600" y="1911" type="line"/>
    </contour>
  </outline>
</glyph>
<glyph name="Wgrave" format="1">
  <advance width="1992"/>
  <unicode hex="1E80"/>
  <outline>
    <contour>
      <point x="443" y="0" type="line"/>
      <point x="705" y="0" type="line"/>
      <point x="989" y="1053" type="line"/>
      <point x="1299" y="0" type="line"/>
      <point x="1544" y="0" type="line"/>
      <point x="1930" y="1476" type="line"/>
      <point x="1645" y="1476" type="line"/>
      <point x="1405" y="466" type="line"/>
      <point x="1109" y="1476" type="line"/>
      <point x="1082.88" y="1476" type="line"/>
      <point x="1070" y="1514" type="line"/>
      <point x="803" y="1514" type="line"/>
      <point x="849.769" y="1443.55" type="line"/>
      <point x="599" y="455" type="line"/>
      <point x="344" y="1476" type="line"/>
      <point x="56" y="1476" type="line"/>
    </contour>
  </outline>
</glyph>
<glyph name="Wacute" format="1">
  <advance width="1992"/>
  <unicode hex="1E82"/>
  <outline>
    <contour>
      <point x="443" y="0" type="line"/>
      <point x="705" y="0" type="line"/>
      <point x="989" y="1053" type="line"/>
      <point x="1299" y="0" type="line"/>
      <point x="1544" y="0" type="line"/>
      <point x="1930" y="1476" type="line"/>
      <point x="1645" y="1476" type="line"/>
      <point x="1405" y="466" type="line"/>
      <point x="1125.8" y="1418.69" type="line"/>
      <point x="1188" y="1514" type="line"/>
      <point x="920" y="1514" type="line"/>
      <point x="907.866" y="1476" type="line"/>
      <point x="858" y="1476" type="line"/>
      <point x="599" y="455" type="line"/>
      <point x="344" y="1476" type="line"/>
      <point x="56" y="1476" type="line"/>
    </contour>
  </outline>
</glyph>
<glyph name="Wdieresis" format="1">
  <advance width="1992"/>
  <unicode hex="1E84"/>
  <outline>
    <contour>
      <point x="443" y="0" type="line"/>
      <point x="705" y="0" type="line"/>
      <point x="989" y="1053" type="line"/>
      <point x="1299" y="0" type="line"/>
      <point x="1544" y="0" type="line"/>
      <point x="1930" y="1476" type="line"/>
      <point x="1645" y="1476" type="line"/>
      <point x="1405" y="466" type="line"/>
      <point x="1176.99" y="1244" type="line"/>
      <point x="1384" y="1244" type="line"/>
      <point x="1384" y="1477" type="line"/>
      <point x="1119" y="1477" type="line"/>
      <point x="1119" y="1441.88" type="line"/>
      <point x="1109" y="1476" type="line"/>
      <point x="874" y="1476" type="line"/>
      <point x="874" y="1477" type="line"/>
      <point x="610" y="1477" type="line"/>
      <point x="610" y="1244" type="line"/>
      <point x="799.148" y="1244" type="line"/>
      <point x="599" y="455" type="line"/>
      <point x="344" y="1476" type="line"/>
      <point x="56" y="1476" type="line"/>
    </contour>
  </outline>
</glyph>
<glyph name="wdieresis" format="1">
  <advance width="1692"/>
  <unicode hex="1E85"/>
  <outline>
    <contour>
      <point x="343" y="0" type="line"/>
      <point x="593" y="0" type="line"/>
      <point x="838" y="739" type="line"/>
      <point x="1074" y="0" type="line"/>
      <point x="1332" y="0" type="line"/>
      <point x="1616" y="1074" type="line"/>
      <point x="1363" y="1074" type="line"/>
      <point x="1178" y="313" type="line"/>
      <point x="942" y="1074" type="line"/>
      <point x="729" y="1074" type="line"/>
      <point x="500" y="322" type="line"/>
      <point x="302" y="1074" type="line"/>
      <point x="48" y="1074" type="line"/>
    </contour>
    <contour>
      <point x="459" y="1260" type="line"/>
      <point x="723" y="1260" type="line"/>
      <point x="723" y="1493" type="line"/>
      <point x="459" y="1493" type="line"/>
    </contour>
    <contour>
      <point x="968" y="1260" type="line"/>
      <point x="1233" y="1260" type="line"/>
      <point x="1233" y="1493" type="line"/>
      <point x="968" y="1493" type="line"/>
    </contour>
  </outline>
</glyph>
<glyph name="ygrave" format="1">
  <advance width="1140"/>
  <unicode hex="1EF3"/>
  <outline>
    <contour>
      <point x="196" y="-387" type="line"/>
      <point x="313" y="-387" type="line" smooth="yes"/>
      <point x="598" y="-387"/>
      <point x="639" y="-303"/>
      <point x="769" y="87" type="curve" smooth="yes"/>
      <point x="1100" y="1074" type="line"/>
      <point x="836" y="1074" type="line"/>
      <point x="606" y="300" type="line"/>
      <point x="331" y="1074" type="line"/>
      <point x="64" y="1074" type="line"/>
      <point x="485" y="-2" type="line"/>
      <point x="451" y="-127"/>
      <point x="415" y="-198"/>
      <point x="308" y="-198" type="curve" smooth="yes"/>
      <point x="196" y="-198" type="line"/>
    </contour>
    <contour>
      <point x="501" y="1260" type="line"/>
      <point x="652" y="1260" type="line"/>
      <point x="531" y="1617" type="line"/>
      <point x="264" y="1617" type="line"/>
    </contour>
  </outline>
</glyph>
<glyph name="quoteleft" format="1">
  <advance width="768"/>
  <unicode hex="2018"/>
  <outline>
    <contour>
      <point x="277" y="838" type="line"/>
      <point x="599" y="838" type="line"/>
      <point x="599" y="1114" type="line"/>
      <point x="434" y="1114" type="line"/>
      <point x="434" y="1252"/>
      <point x="529" y="1399"/>
      <point x="580" y="1457" type="curve"/>
      <point x="473" y="1503" type="line"/>
      <point x="411" y="1447"/>
      <point x="277" y="1262"/>
      <point x="277" y="1061" type="curve" smooth="yes"/>
    </contour>
  </outline>
</glyph>
<glyph name="ellipsis" format="1">
  <advance width="1800"/>
  <unicode hex="2026"/>
  <outline>
    <contour>
      <point x="176" y="0" type="line"/>
      <point x="474" y="0" type="line"/>
      <point x="474" y="284" type="line"/>
      <point x="176" y="284" type="line"/>
    </contour>
    <contour>
      <point x="776" y="0" type="line"/>
      <point x="1074" y="0" type="line"/>
      <point x="1074" y="284" type="line"/>
      <point x="776" y="284" type="line"/>
    </contour>
    <contour>
      <point x="1376" y="0" type="line"/>
      <point x="1674" y="0" type="line"/>
      <point x="1674" y="284" type="line"/>
      <point x="1376" y="284" type="line"/>
    </contour>
  </outline>
</glyph>
<glyph name="uni2215" format="1">
  <advance width="919"/>
  <unicode hex="2215"/>
  <outline>
    <contour>
      <point x="106" y="0" type="line"/>
      <point x="349" y="0" type="line"/>
      <point x="918" y="1516" type="line"/>
      <point x="675" y="1516" type="line"/>
    </contour>
  </outline>
</glyph>
